# xmcd
#
# Track frame offsets: 
#        150
#        27057
#        40330
#        84800
#        108152
#        161550
#        187327
#
# Disc length: 2830 seconds
#
# Revision: 0
# Processed by: cddbd v1.5.1PL0 Copyright (c) Steve Scherf et al.
# Submitted via: ExactAudioCopy v0.95a5
#
DISCID=4c0b0c07
DTITLE=Σταύτος Ξαρχάκος - Τσιτσάνη Διάλογοι CD1
DYEAR=2004
DGENRE=Blues
TTITLE0=Ο L.V.B. ακούει παλιά λαϊκά! (Πάνε τα παλιά, 1932 δισκ. 1938 Σ
TTITLE0=Παγιουμτζής - Β. Τσιτσάνης)
TTITLE1=Ανθούλα, πεθαίων για σένα (Αρχόντισσα, 1938 δισκ. 1939 Σ. Παγι
TTITLE1=ουμτζής - Σ. Περπινιάδης)
TTITLE2=Στις πεοφιλούσες μοναχικές γυναίκες (Μες στην πολλή σκοτούρα μ
TTITLE2=ου, 1932 δισκ. 1939 Σ. Παγιουμτζής)
TTITLE3=Με τα πανέμορφα ογλάν (Τα παντρεμενάδικα, 1932 δισκ. 1939 Ντ. 
TTITLE3=Σταυροπούλου - Β. Τσιτσάνης)
TTITLE4=Η ασέληνος Νύχτα της 5ης Μαρτίου 1951 (Καλαμπακιώτισσα, 1938 δ
TTITLE4=ισκ. 1939 Σ. Παγιουμτζής - Β. Τσιτσάνης)
TTITLE5=Οι μάντρες των ξεχασμένων κήπων (Στου Αλευρά τη μάντρα ή Ματζα
TTITLE5=ράγκας, 1938 δισκ. 1939 Σ. Παγιουμτζής - Β. Τσιτσάνης)
TTITLE6=Ο συνθέτης ταξιδεύει στο ποτάμι (Τα βελουδένια μάτια σου, 1934
TTITLE6=δισκ. 1938 Σ. Παγιουμτζής)
EXTD=
EXTT0=
EXTT1=
EXTT2=
EXTT3=
EXTT4=
EXTT5=
EXTT6=
PLAYORDER=
